<?xml version="1.0" encoding="UTF-8"?>
<!DOCTYPE svg PUBLIC "-//W3C//DTD SVG 1.1//EN" "http://www.w3.org/Graphics/SVG/1.1/DTD/svg11.dtd">
<svg xmlns="http://www.w3.org/2000/svg" version="1.1" width="320px" height="320px" style="shape-rendering:geometricPrecision; text-rendering:geometricPrecision; image-rendering:optimizeQuality; fill-rule:evenodd; clip-rule:evenodd" xmlns:xlink="http://www.w3.org/1999/xlink">
<g><path style="opacity:0.008" fill="#000000" d="M 72.5,23.5 C 73.8333,24.1667 73.8333,24.1667 72.5,23.5 Z"/></g>
<g><path style="opacity:0.818" fill="#eceba9" d="M 302.5,89.5 C 302.5,89.8333 302.5,90.1667 302.5,90.5C 271.167,90.5 239.833,90.5 208.5,90.5C 208.18,93.8984 208.513,97.2317 209.5,100.5C 210.747,98.9556 212.08,97.4556 213.5,96C 215.579,95.1923 217.579,95.359 219.5,96.5C 219.376,97.1067 219.043,97.44 218.5,97.5C 217.749,96.4265 216.749,96.2599 215.5,97C 212.365,99.698 210.365,102.698 209.5,106C 208.552,106.483 207.552,106.649 206.5,106.5C 206.5,100.833 206.5,95.1667 206.5,89.5C 238.5,89.5 270.5,89.5 302.5,89.5 Z"/></g>
<g><path style="opacity:0.725" fill="#efecb9" d="M 302.5,90.5 C 302.5,90.1667 302.5,89.8333 302.5,89.5C 306.182,89.3347 309.848,89.5014 313.5,90C 316.079,91.0757 317.746,92.909 318.5,95.5C 317.038,94.5423 315.705,93.3756 314.5,92C 312.527,91.5045 310.527,91.3379 308.5,91.5C 308.157,93.4832 308.824,94.8166 310.5,95.5C 311.167,95.5 311.833,95.5 312.5,95.5C 312.737,96.791 312.404,97.791 311.5,98.5C 310.526,96.9147 309.026,95.9147 307,95.5C 306.798,93.7444 306.298,92.0777 305.5,90.5C 304.571,91.6888 304.238,93.0222 304.5,94.5C 304.167,94.5 303.833,94.5 303.5,94.5C 303.768,92.901 303.434,91.5676 302.5,90.5 Z"/></g>
<g><path style="opacity:0.376" fill="#eeecb0" d="M 203.5,92.5 C 202.234,91.9101 200.901,91.4101 199.5,91C 191.167,90.3333 182.833,90.3333 174.5,91C 173.62,92.3561 173.286,93.8561 173.5,95.5C 174.833,95.5 176.167,95.5 177.5,95.5C 177.5,97.1667 177.5,98.8333 177.5,100.5C 175.089,100.137 173.589,101.137 173,103.5C 172.183,106.964 172.517,110.298 174,113.5C 175.049,114.517 176.216,114.684 177.5,114C 178.24,112.215 178.907,110.382 179.5,108.5C 179.957,107.702 180.624,107.369 181.5,107.5C 178.833,110.833 179.167,113.833 182.5,116.5C 181.644,119.513 179.811,120.18 177,118.5C 176.517,117.552 176.351,116.552 176.5,115.5C 174.61,115.703 173.11,115.037 172,113.5C 171.333,109.167 171.333,104.833 172,100.5C 173.356,99.6198 174.856,99.2865 176.5,99.5C 176.5,98.5 176.5,97.5 176.5,96.5C 172.381,96.8011 170.381,94.8011 170.5,90.5C 169.416,91.6651 168.583,92.9984 168,94.5C 167.184,95.8228 166.017,96.4894 164.5,96.5C 164.721,95.2652 165.388,94.2652 166.5,93.5C 166.167,92.5 165.5,91.8333 164.5,91.5C 162.259,92.0318 160.759,93.3651 160,95.5C 158.905,100.78 158.405,106.113 158.5,111.5C 157.35,106.684 157.184,101.684 158,96.5C 160.228,91.8832 163.895,89.2165 169,88.5C 178.67,89.8074 188.67,89.8074 199,88.5C 201.616,88.6171 203.116,89.9504 203.5,92.5 Z"/></g>
<g><path style="opacity:1" fill="#e9e484" d="M 203.5,92.5 C 204.833,94.5 204.833,96.5 203.5,98.5C 202.674,103.316 202.174,108.316 202,113.5C 200.989,114.337 199.822,114.67 198.5,114.5C 198.666,109.156 198.499,103.823 198,98.5C 197.481,97.4844 196.647,96.8178 195.5,96.5C 191.201,95.4577 186.868,95.2911 182.5,96C 181.088,97.4134 180.088,99.0801 179.5,101C 180.618,103.059 181.285,105.226 181.5,107.5C 180.624,107.369 179.957,107.702 179.5,108.5C 178.907,110.382 178.24,112.215 177.5,114C 176.216,114.684 175.049,114.517 174,113.5C 172.517,110.298 172.183,106.964 173,103.5C 173.589,101.137 175.089,100.137 177.5,100.5C 177.5,98.8333 177.5,97.1667 177.5,95.5C 176.167,95.5 174.833,95.5 173.5,95.5C 173.286,93.8561 173.62,92.3561 174.5,91C 182.833,90.3333 191.167,90.3333 199.5,91C 200.901,91.4101 202.234,91.9101 203.5,92.5 Z"/></g>
<g><path style="opacity:1" fill="#e9e485" d="M 302.5,90.5 C 303.434,91.5676 303.768,92.901 303.5,94.5C 303.167,94.5 302.833,94.5 302.5,94.5C 302.5,93.5 302.5,92.5 302.5,91.5C 272.477,91.0931 242.477,91.5931 212.5,93C 221.419,94.113 230.419,94.9463 239.5,95.5C 240.127,96.4168 240.461,97.4168 240.5,98.5C 238.718,97.2804 236.718,96.6138 234.5,96.5C 232.167,96.5 229.833,96.5 227.5,96.5C 224.737,96.7438 222.571,98.0771 221,100.5C 220.501,105.155 220.334,109.821 220.5,114.5C 219.5,114.5 218.5,114.5 217.5,114.5C 216.323,111.636 215.323,108.636 214.5,105.5C 216.303,103.041 217.637,100.374 218.5,97.5C 219.043,97.44 219.376,97.1067 219.5,96.5C 217.579,95.359 215.579,95.1923 213.5,96C 212.08,97.4556 210.747,98.9556 209.5,100.5C 208.513,97.2317 208.18,93.8984 208.5,90.5C 239.833,90.5 271.167,90.5 302.5,90.5 Z"/></g>
<g><path style="opacity:1" fill="#eae27b" d="M 302.5,94.5 C 299.951,94.4411 297.951,95.4411 296.5,97.5C 295.5,97.1667 294.833,96.5 294.5,95.5C 289.844,94.4312 285.178,94.4312 280.5,95.5C 280.567,96.9587 280.234,98.2921 279.5,99.5C 278.778,100.551 277.778,101.218 276.5,101.5C 272.967,96.3903 268.3,94.7237 262.5,96.5C 262.158,97.3382 261.492,97.6716 260.5,97.5C 257.27,97.561 255.437,99.2277 255,102.5C 254.238,106.587 254.404,110.587 255.5,114.5C 250.944,116.442 245.944,117.108 240.5,116.5C 240.5,113.833 240.5,111.167 240.5,108.5C 242.722,108.441 243.722,107.275 243.5,105C 242.741,102.735 241.741,100.568 240.5,98.5C 240.461,97.4168 240.127,96.4168 239.5,95.5C 230.419,94.9463 221.419,94.113 212.5,93C 242.477,91.5931 272.477,91.0931 302.5,91.5C 302.5,92.5 302.5,93.5 302.5,94.5 Z"/></g>
<g><path style="opacity:0.027" fill="#feffb5" d="M 304.5,94.5 C 305.833,95.1667 305.833,95.1667 304.5,94.5 Z"/></g>
<g><path style="opacity:0.035" fill="#feffc5" d="M 303.5,95.5 C 303.833,95.5 304.167,95.5 304.5,95.5C 304.315,96.1701 303.981,96.1701 303.5,95.5 Z"/></g>
<g><path style="opacity:0.973" fill="#ebe9a6" d="M 203.5,98.5 C 203.83,105.2 203.497,111.866 202.5,118.5C 201.167,119.833 199.833,119.833 198.5,118.5C 197.67,112.862 197.17,107.196 197,101.5C 195.734,98.3649 193.401,96.6983 190,96.5C 186.758,95.9411 183.925,97.1078 181.5,100C 181.833,100.333 182.167,100.667 182.5,101C 185.328,99.9085 188.328,99.5752 191.5,100C 192.5,100.333 193.5,100.667 194.5,101C 193.359,101.741 193.359,102.575 194.5,103.5C 194.291,104.086 193.957,104.586 193.5,105C 189.325,105.185 185.325,106.019 181.5,107.5C 181.285,105.226 180.618,103.059 179.5,101C 180.088,99.0801 181.088,97.4134 182.5,96C 186.868,95.2911 191.201,95.4577 195.5,96.5C 196.647,96.8178 197.481,97.4844 198,98.5C 198.499,103.823 198.666,109.156 198.5,114.5C 199.822,114.67 200.989,114.337 202,113.5C 202.174,108.316 202.674,103.316 203.5,98.5 Z"/></g>
<g><path style="opacity:0.859" fill="#ebe79e" d="M 234.5,96.5 C 236.718,96.6138 238.718,97.2804 240.5,98.5C 241.741,100.568 242.741,102.735 243.5,105C 243.722,107.275 242.722,108.441 240.5,108.5C 241.227,106.283 241.06,103.95 240,101.5C 238.27,99.5981 236.437,97.9314 234.5,96.5 Z"/></g>
<g><path style="opacity:1" fill="#eceaa7" d="M 302.5,94.5 C 302.833,94.5 303.167,94.5 303.5,94.5C 303.5,94.8333 303.5,95.1667 303.5,95.5C 302.005,95.9887 300.671,96.6554 299.5,97.5C 298.509,103.979 298.176,110.646 298.5,117.5C 300.5,117.5 302.5,117.5 304.5,117.5C 304.5,116.5 304.5,115.5 304.5,114.5C 305.492,114.328 306.158,114.662 306.5,115.5C 305.167,115.833 305.167,116.167 306.5,116.5C 306.804,117.15 307.137,117.817 307.5,118.5C 304.216,119.657 300.882,119.824 297.5,119C 296.939,112.474 296.106,105.974 295,99.5C 291.811,96.5487 288.311,95.8821 284.5,97.5C 282.589,98.075 280.922,99.075 279.5,100.5C 279.5,100.167 279.5,99.8333 279.5,99.5C 280.234,98.2921 280.567,96.9587 280.5,95.5C 285.178,94.4312 289.844,94.4312 294.5,95.5C 294.833,96.5 295.5,97.1667 296.5,97.5C 297.951,95.4411 299.951,94.4411 302.5,94.5 Z"/></g>
<g><path style="opacity:0.024" fill="#fefffe" d="M 284.5,97.5 C 285.833,98.1667 285.833,98.1667 284.5,97.5 Z"/></g>
<g><path style="opacity:0.561" fill="#f0ebbe" d="M 285.5,100.5 C 289.045,98.7568 291.711,99.7568 293.5,103.5C 293.145,104.522 292.478,105.189 291.5,105.5C 291.615,101.973 289.615,100.306 285.5,100.5 Z"/></g>
<g><path style="opacity:0.004" fill="#fefffe" d="M 237.5,101.5 C 238.833,102.167 238.833,102.167 237.5,101.5 Z"/></g>
<g><path style="opacity:1" fill="#edeab4" d="M 227.5,101.5 C 227.392,103.514 228.058,105.18 229.5,106.5C 223.812,106.512 223.145,104.845 227.5,101.5 Z"/></g>
<g><path style="opacity:1" fill="#f1eeb1" d="M 237.5,102.5 C 237.5,103.833 237.5,105.167 237.5,106.5C 236.167,106.5 234.833,106.5 233.5,106.5C 233.966,104.799 233.966,103.299 233.5,102C 231.527,101.505 229.527,101.338 227.5,101.5C 229.3,99.9496 231.467,98.9496 234,98.5C 234.949,100.093 236.115,101.426 237.5,102.5 Z"/></g>
<g><path style="opacity:1" fill="#e2e886" d="M 186.5,101.5 C 188.5,101.5 190.5,101.5 192.5,101.5C 192.5,102.5 192.5,103.5 192.5,104.5C 190.076,104.808 187.743,104.474 185.5,103.5C 185.863,102.817 186.196,102.15 186.5,101.5 Z"/></g>
<g><path style="opacity:1" fill="#ebe783" d="M 227.5,101.5 C 229.527,101.338 231.527,101.505 233.5,102C 233.966,103.299 233.966,104.799 233.5,106.5C 232.167,106.5 230.833,106.5 229.5,106.5C 228.058,105.18 227.392,103.514 227.5,101.5 Z"/></g>
<g><path style="opacity:0.004" fill="#fefffe" d="M 155.5,104.5 C 156.833,105.167 156.833,105.167 155.5,104.5 Z"/></g>
<g><path style="opacity:1" fill="#e9e480" d="M 164.5,96.5 C 163.167,97.5 163.167,98.5 164.5,99.5C 165.73,102.231 166.396,105.231 166.5,108.5C 166.478,111.59 165.812,114.257 164.5,116.5C 161.865,115.527 159.865,113.86 158.5,111.5C 158.405,106.113 158.905,100.78 160,95.5C 160.759,93.3651 162.259,92.0318 164.5,91.5C 165.5,91.8333 166.167,92.5 166.5,93.5C 165.388,94.2652 164.721,95.2652 164.5,96.5 Z"/></g>
<g><path style="opacity:0.255" fill="#e3e1af" d="M 309.5,99.5 C 306.909,104.466 306.909,109.466 309.5,114.5C 308.25,114.423 307.417,113.756 307,112.5C 306.333,108.5 306.333,104.5 307,100.5C 307.671,99.7476 308.504,99.4142 309.5,99.5 Z"/></g>
<g><path style="opacity:0.004" fill="#fefffe" d="M 191.5,106.5 C 192.833,107.167 192.833,107.167 191.5,106.5 Z"/></g>
<g><path style="opacity:0.976" fill="#ececa6" d="M 218.5,97.5 C 217.637,100.374 216.303,103.041 214.5,105.5C 215.323,108.636 216.323,111.636 217.5,114.5C 216.728,113.306 215.728,112.306 214.5,111.5C 213.315,110.143 212.315,108.643 211.5,107C 213.296,103.38 215.63,100.213 218.5,97.5 Z"/></g>
<g><path style="opacity:0.055" fill="#f3d3b9" d="M 286.5,106.5 C 287.239,106.369 287.906,106.536 288.5,107C 287.563,107.692 286.897,107.525 286.5,106.5 Z"/></g>
<g><path style="opacity:0.886" fill="#f0f0a8" d="M 164.5,99.5 C 166.359,99.4609 167.692,100.294 168.5,102C 168.191,104.926 167.857,108.093 167.5,111.5C 167.5,113.5 167.5,115.5 167.5,117.5C 166.209,117.737 165.209,117.404 164.5,116.5C 165.812,114.257 166.478,111.59 166.5,108.5C 166.396,105.231 165.73,102.231 164.5,99.5 Z"/></g>
<g><path style="opacity:0.157" fill="#f2f0ba" d="M 238.5,108.5 C 235.35,110.125 232.017,110.458 228.5,109.5C 227.054,112.406 228.054,113.739 231.5,113.5C 233.818,113.003 236.152,112.67 238.5,112.5C 233.11,116.987 228.443,116.32 224.5,110.5C 226.333,108.95 228.499,107.95 231,107.5C 233.882,107.286 236.382,107.62 238.5,108.5 Z"/></g>
<g><path style="opacity:1" fill="#e9e590" d="M 318.5,95.5 C 318.5,96.1667 318.833,96.5 319.5,96.5C 319.5,101.5 319.5,106.5 319.5,111.5C 318.833,111.5 318.5,111.833 318.5,112.5C 316.787,114.85 314.453,115.85 311.5,115.5C 310.508,115.672 309.842,115.338 309.5,114.5C 306.909,109.466 306.909,104.466 309.5,99.5C 310.167,99.1667 310.833,98.8333 311.5,98.5C 312.404,97.791 312.737,96.791 312.5,95.5C 313.152,96.4486 313.486,97.6153 313.5,99C 312.745,101.695 311.411,104.028 309.5,106C 310,108.5 310.5,111 311,113.5C 313.54,114.876 315.54,114.21 317,111.5C 317.667,106.5 317.667,101.5 317,96.5C 315.611,94.7727 313.944,93.4394 312,92.5C 309.72,92.8942 309.22,93.8942 310.5,95.5C 308.824,94.8166 308.157,93.4832 308.5,91.5C 310.527,91.3379 312.527,91.5045 314.5,92C 315.705,93.3756 317.038,94.5423 318.5,95.5 Z"/></g>
<g><path style="opacity:1" fill="#e9e379" d="M 312.5,95.5 C 311.833,95.5 311.167,95.5 310.5,95.5C 309.22,93.8942 309.72,92.8942 312,92.5C 313.944,93.4394 315.611,94.7727 317,96.5C 317.667,101.5 317.667,106.5 317,111.5C 315.54,114.21 313.54,114.876 311,113.5C 310.5,111 310,108.5 309.5,106C 311.411,104.028 312.745,101.695 313.5,99C 313.486,97.6153 313.152,96.4486 312.5,95.5 Z"/></g>
<g><path style="opacity:0.008" fill="#fefffe" d="M 211.5,110.5 C 212.833,111.167 212.833,111.167 211.5,110.5 Z"/></g>
<g><path style="opacity:1" fill="#ebe6ad" d="M 262.5,96.5 C 268.3,94.7237 272.967,96.3903 276.5,101.5C 276.5,104.167 276.5,106.833 276.5,109.5C 271.5,109.5 266.5,109.5 261.5,109.5C 261.33,110.822 261.663,111.989 262.5,113C 265.146,113.497 267.813,113.664 270.5,113.5C 267.819,115.762 264.819,116.096 261.5,114.5C 261.5,113.833 261.167,113.5 260.5,113.5C 259.181,111.532 259.181,109.532 260.5,107.5C 259.907,105.618 259.24,103.785 258.5,102C 260.154,101.392 261.821,100.892 263.5,100.5C 264.531,99.7515 265.698,99.0848 267,98.5C 268.271,99.8825 269.771,100.883 271.5,101.5C 271.427,103.027 272.094,104.027 273.5,104.5C 273.5,103.833 273.5,103.167 273.5,102.5C 273.938,102.565 274.272,102.399 274.5,102C 271.684,97.7609 267.684,95.9276 262.5,96.5 Z M 273.5,104.5 C 275.176,105.183 275.843,106.517 275.5,108.5C 270.786,108.827 266.12,108.493 261.5,107.5C 265.787,107.027 269.787,106.027 273.5,104.5 Z M 271.5,101.5 C 272.167,101.833 272.833,102.167 273.5,102.5C 273.5,103.167 273.5,103.833 273.5,104.5C 272.094,104.027 271.427,103.027 271.5,101.5 Z"/></g>
<g><path style="opacity:1" fill="#e5e47e" d="M 263.5,100.5 C 264.833,100.5 266.167,100.5 267.5,100.5C 267.5,101.833 267.5,103.167 267.5,104.5C 265.396,104.799 263.396,104.466 261.5,103.5C 262.193,102.482 262.859,101.482 263.5,100.5 Z"/></g>
<g><path style="opacity:1" fill="#e6e392" d="M 279.5,99.5 C 279.5,99.8333 279.5,100.167 279.5,100.5C 279.811,101.478 280.478,102.145 281.5,102.5C 282.622,101.37 283.956,100.703 285.5,100.5C 289.615,100.306 291.615,101.973 291.5,105.5C 289.833,105.5 288.167,105.5 286.5,105.5C 278.427,105.611 275.76,109.611 278.5,117.5C 277.167,117.5 275.833,117.5 274.5,117.5C 274.5,116.5 274.5,115.5 274.5,114.5C 273.432,113.566 272.099,113.232 270.5,113.5C 267.813,113.664 265.146,113.497 262.5,113C 261.663,111.989 261.33,110.822 261.5,109.5C 266.5,109.5 271.5,109.5 276.5,109.5C 276.5,106.833 276.5,104.167 276.5,101.5C 277.778,101.218 278.778,100.551 279.5,99.5 Z"/></g>
<g><path style="opacity:0.008" fill="#feff00" d="M 214.5,111.5 C 213.833,112.167 213.833,112.167 214.5,111.5 Z"/></g>
<g><path style="opacity:0.816" fill="#e4e2ac" d="M 286.5,105.5 C 286.5,105.833 286.5,106.167 286.5,106.5C 278.601,107.298 276.935,110.965 281.5,117.5C 277.685,118.808 274.019,118.808 270.5,117.5C 271.5,117.167 272.167,116.5 272.5,115.5C 273.167,115.167 273.833,114.833 274.5,114.5C 274.5,115.5 274.5,116.5 274.5,117.5C 275.833,117.5 277.167,117.5 278.5,117.5C 275.76,109.611 278.427,105.611 286.5,105.5 Z"/></g>
<g><path style="opacity:0.776" fill="#eff0b5" d="M 184.5,115.5 C 183.071,112.537 183.571,109.87 186,107.5C 188.719,108.444 191.552,108.777 194.5,108.5C 193.976,114.677 190.643,117.01 184.5,115.5 Z"/></g>
<g><path style="opacity:1" fill="#e2e884" d="M 186.5,109.5 C 187.5,109.5 188.5,109.5 189.5,109.5C 190.244,112.95 188.91,114.616 185.5,114.5C 185.366,112.708 185.699,111.042 186.5,109.5 Z"/></g>
<g><path style="opacity:1" fill="#eae9a6" d="M 227.5,96.5 C 222.033,100.396 220.199,105.729 222,112.5C 222.876,114.635 224.376,115.969 226.5,116.5C 226.804,117.15 227.137,117.817 227.5,118.5C 223.098,119.969 219.764,118.636 217.5,114.5C 218.5,114.5 219.5,114.5 220.5,114.5C 220.334,109.821 220.501,105.155 221,100.5C 222.571,98.0771 224.737,96.7438 227.5,96.5 Z"/></g>
<g><path style="opacity:0.604" fill="#efedba" d="M 283.5,108.5 C 286.584,108.271 289.918,108.271 293.5,108.5C 292.509,114.748 289.009,116.748 283,114.5C 282.137,112.251 282.637,110.418 284.5,109C 284.272,108.601 283.938,108.435 283.5,108.5 Z"/></g>
<g><path style="opacity:1" fill="#e3e682" d="M 285.5,109.5 C 291.372,108.812 292.372,110.312 288.5,114C 287.207,114.49 285.873,114.657 284.5,114.5C 284.366,112.708 284.699,111.042 285.5,109.5 Z"/></g>
<g><path style="opacity:0.651" fill="#e9e9ac" d="M 211.5,111.5 C 213.38,113.926 214.713,116.592 215.5,119.5C 212.941,119.802 210.607,119.468 208.5,118.5C 206.586,115.316 205.92,111.649 206.5,107.5C 207.978,107.238 209.311,107.571 210.5,108.5C 209.223,109.922 209.557,110.922 211.5,111.5 Z"/></g>
<g><path style="opacity:0.031" fill="#dedfbe" d="M 272.5,115.5 C 271.833,114.167 271.833,114.167 272.5,115.5 Z"/></g>
<g><path style="opacity:0.055" fill="#f3f2da" d="M 182.5,116.5 C 182.842,115.662 183.508,115.328 184.5,115.5C 184.158,116.338 183.492,116.672 182.5,116.5 Z"/></g>
<g><path style="opacity:0.031" fill="#dedfbe" d="M 226.5,115.5 C 227.833,116.167 227.833,116.167 226.5,115.5 Z"/></g>
<g><path style="opacity:0.035" fill="#f8f8c0" d="M 306.5,116.5 C 306.5,116.167 306.5,115.833 306.5,115.5C 307.492,115.328 308.158,115.662 308.5,116.5C 307.833,116.5 307.167,116.5 306.5,116.5 Z"/></g>
<g><path style="opacity:0.855" fill="#f4f6be" d="M 318.5,112.5 C 317.604,115.069 315.938,117.069 313.5,118.5C 312.575,117.643 311.908,116.643 311.5,115.5C 314.453,115.85 316.787,114.85 318.5,112.5 Z"/></g>
<g><path style="opacity:0.937" fill="#fcfbfc" d="M 137.5,169.5 C 136.891,167.057 135.391,165.39 133,164.5C 129.567,166.651 126.234,168.985 123,171.5C 121.441,173.217 120.608,175.217 120.5,177.5C 120.167,177.5 119.833,177.5 119.5,177.5C 111.868,176.642 104.201,176.309 96.5,176.5C 96.5,174.833 96.5,173.167 96.5,171.5C 101.695,171.821 106.695,171.487 111.5,170.5C 111.5,169.5 111.5,168.5 111.5,167.5C 106.125,167.828 100.792,167.495 95.5,166.5C 94.1783,164.135 94.1783,161.802 95.5,159.5C 95.8333,159.5 96.1667,159.5 96.5,159.5C 101.5,159.5 106.5,159.5 111.5,159.5C 111.5,158.167 111.5,156.833 111.5,155.5C 106.167,155.5 100.833,155.5 95.5,155.5C 95.5,155.167 95.5,154.833 95.5,154.5C 95.5,152.833 95.5,151.167 95.5,149.5C 96.5676,148.566 97.901,148.232 99.5,148.5C 101.339,150.12 103.339,150.454 105.5,149.5C 110.137,150.22 114.803,150.72 119.5,151C 122.438,151.696 125.104,152.862 127.5,154.5C 127.5,155.167 127.833,155.5 128.5,155.5C 129.312,156.993 130.645,157.66 132.5,157.5C 134.355,157.66 135.688,156.993 136.5,155.5C 138.714,154.608 139.714,152.942 139.5,150.5C 135.872,138.047 127.539,131.214 114.5,130C 93.6302,128.467 74.6302,133.633 57.5,145.5C 56.5321,142.956 54.8655,140.789 52.5,139C 54.2705,138.465 54.6039,137.631 53.5,136.5C 52.5224,136.977 51.6891,137.643 51,138.5C 50.5831,137.244 49.7498,136.577 48.5,136.5C 75.0376,116.188 104.038,111.688 135.5,123C 145.293,129.924 151.293,139.257 153.5,151C 152.284,160.717 146.95,166.884 137.5,169.5 Z"/></g>
<g><path style="opacity:1" fill="#e7ea89" d="M 208.5,118.5 C 206.928,116.133 207.261,114.133 209.5,112.5C 211.553,113.939 212.553,115.939 212.5,118.5C 211.167,118.5 209.833,118.5 208.5,118.5 Z"/></g>
<g><path style="opacity:1" fill="#eae894" d="M 238.5,108.5 C 239.167,108.5 239.833,108.5 240.5,108.5C 240.5,111.167 240.5,113.833 240.5,116.5C 245.944,117.108 250.944,116.442 255.5,114.5C 256.478,114.811 257.145,115.478 257.5,116.5C 254.5,116.833 251.5,117.167 248.5,117.5C 245.087,117.483 242.087,116.816 239.5,115.5C 239.737,114.209 239.404,113.209 238.5,112.5C 236.152,112.67 233.818,113.003 231.5,113.5C 228.054,113.739 227.054,112.406 228.5,109.5C 232.017,110.458 235.35,110.125 238.5,108.5 Z"/></g>
<g><path style="opacity:0.024" fill="#fefffe" d="M 270.5,117.5 C 269.833,116.167 269.833,116.167 270.5,117.5 Z"/></g>
<g><path style="opacity:0.988" fill="#e6e188" d="M 299.5,97.5 C 300.315,98.8366 301.482,99.8366 303,100.5C 303.223,105.25 303.723,109.916 304.5,114.5C 304.5,115.5 304.5,116.5 304.5,117.5C 302.5,117.5 300.5,117.5 298.5,117.5C 298.176,110.646 298.509,103.979 299.5,97.5 Z"/></g>
<g><path style="opacity:0.004" fill="#fefffe" d="M 308.5,116.5 C 309.833,117.167 309.833,117.167 308.5,116.5 Z"/></g>
<g><path style="opacity:0.878" fill="#f3f2c3" d="M 158.5,111.5 C 159.865,113.86 161.865,115.527 164.5,116.5C 165.209,117.404 166.209,117.737 167.5,117.5C 167.5,115.5 167.5,113.5 167.5,111.5C 172.281,119.552 170.281,121.385 161.5,117C 159.393,115.736 158.393,113.903 158.5,111.5 Z"/></g>
<g><path style="opacity:0.769" fill="#edebb4" d="M 260.5,97.5 C 255.953,101.084 254.453,105.75 256,111.5C 256.377,112.942 257.21,113.942 258.5,114.5C 258.5,115.167 258.833,115.5 259.5,115.5C 259.5,115.833 259.5,116.167 259.5,116.5C 259.167,117.167 258.833,117.833 258.5,118.5C 250.826,118.666 243.159,118.5 235.5,118C 236.693,116.905 238.027,116.072 239.5,115.5C 242.087,116.816 245.087,117.483 248.5,117.5C 251.5,117.167 254.5,116.833 257.5,116.5C 257.145,115.478 256.478,114.811 255.5,114.5C 254.404,110.587 254.238,106.587 255,102.5C 255.437,99.2277 257.27,97.561 260.5,97.5 Z"/></g>
<g><path style="opacity:0.694" fill="#f4f4e0" d="M 260.5,113.5 C 261.167,113.5 261.5,113.833 261.5,114.5C 262.234,115.708 262.567,117.041 262.5,118.5C 261.167,118.5 259.833,118.5 258.5,118.5C 258.833,117.833 259.167,117.167 259.5,116.5C 260.833,116.167 260.833,115.833 259.5,115.5C 258.833,115.5 258.5,115.167 258.5,114.5C 258.842,113.662 259.508,113.328 260.5,113.5 Z"/></g>
<g><path style="opacity:0.914" fill="#fdfdfd" d="M 166.5,131.5 C 178.505,131.333 190.505,131.5 202.5,132C 203.931,132.465 205.097,133.299 206,134.5C 207.627,152.768 207.96,171.101 207,189.5C 205.305,194.599 201.805,196.432 196.5,195C 194.342,193.543 192.509,191.71 191,189.5C 182.409,196.342 173.243,197.175 163.5,192C 155.188,182.511 154.355,172.345 161,161.5C 163.365,158.131 166.532,155.964 170.5,155C 177.437,153.827 184.437,153.16 191.5,153C 192.833,150.667 192.833,148.333 191.5,146C 182.392,145.973 173.392,145.139 164.5,143.5C 161.503,138.815 162.17,134.815 166.5,131.5 Z M 175.5,167.5 C 181.176,167.334 186.843,167.501 192.5,168C 190.937,172.46 188.604,176.46 185.5,180C 180.073,183.859 175.573,183.025 172,177.5C 171.182,173.469 172.349,170.136 175.5,167.5 Z"/></g>
<g><path style="opacity:0.916" fill="#fcfcfc" d="M 232.5,131.5 C 245.677,129.75 255.01,134.75 260.5,146.5C 258.63,152.935 254.63,154.768 248.5,152C 245.908,148.738 242.741,146.238 239,144.5C 237.279,144.531 235.446,145.198 233.5,146.5C 231.382,148.439 231.049,150.606 232.5,153C 240.036,155.953 247.369,159.287 254.5,163C 264.302,173.386 263.635,183.052 252.5,192C 241.436,197.149 230.77,196.482 220.5,190C 216.281,186.398 214.781,181.898 216,176.5C 218.317,173.903 221.15,173.07 224.5,174C 227.128,175.626 229.461,177.626 231.5,180C 235.863,182.389 240.196,182.556 244.5,180.5C 247.283,177.658 246.95,175.158 243.5,173C 236.566,170.532 229.899,167.532 223.5,164C 214.228,154.698 214.228,145.365 223.5,136C 226.324,133.921 229.324,132.421 232.5,131.5 Z"/></g>
<g><path style="opacity:0.929" fill="#fcfcfc" d="M 268.5,131.5 C 272.192,130.971 275.358,131.971 278,134.5C 282.505,146.175 287.005,157.842 291.5,169.5C 295.168,157.329 299.335,145.329 304,133.5C 307.346,131.027 310.846,130.86 314.5,133C 316.124,134.117 317.124,135.617 317.5,137.5C 308.972,163.917 300.139,190.25 291,216.5C 289.125,222.155 285.292,223.989 279.5,222C 276.009,220.179 274.843,217.346 276,213.5C 278.072,206.453 280.238,199.453 282.5,192.5C 276.97,175.743 271.136,159.076 265,142.5C 263.518,137.774 264.685,134.107 268.5,131.5 Z"/></g>
<g><path style="opacity:0.914" fill="#fcfcfc" d="M 48.5,136.5 C 49.7498,136.577 50.5831,137.244 51,138.5C 51.6891,137.643 52.5224,136.977 53.5,136.5C 54.6039,137.631 54.2705,138.465 52.5,139C 54.8655,140.789 56.5321,142.956 57.5,145.5C 43.3018,156.634 42.9685,168.134 56.5,180C 75.953,194.279 97.6196,199.279 121.5,195C 126.779,193.384 131.279,190.551 135,186.5C 137.769,181.961 140.269,177.294 142.5,172.5C 150.355,170.521 153.522,173.521 152,181.5C 146.124,197.708 134.624,206.874 117.5,209C 84.2132,213.025 57.0466,202.192 36,176.5C 34.8668,173.065 33.3668,169.899 31.5,167C 32.4563,154.465 38.123,144.298 48.5,136.5 Z"/></g>
<g><path style="opacity:0.894" fill="#ba8fd6" d="M 131.5,148.5 C 132.933,150.558 133.6,152.892 133.5,155.5C 131.833,155.5 130.167,155.5 128.5,155.5C 127.833,155.5 127.5,155.167 127.5,154.5C 127.5,154.167 127.5,153.833 127.5,153.5C 128.978,153.762 130.311,153.429 131.5,152.5C 127.234,143.406 120.067,139.073 110,139.5C 105.405,139.724 100.905,140.391 96.5,141.5C 106.942,135.927 117.275,136.26 127.5,142.5C 129.278,144.264 130.611,146.264 131.5,148.5 Z"/></g>
<g><path style="opacity:0.004" fill="#000000" d="M 18.5,143.5 C 19.8333,144.167 19.8333,144.167 18.5,143.5 Z"/></g>
<g><path style="opacity:1" fill="#bf7de4" d="M 127.5,153.5 C 127.5,153.167 127.5,152.833 127.5,152.5C 126.641,149.548 124.641,147.715 121.5,147C 112.482,146.832 103.482,146.332 94.5,145.5C 95.1799,144.14 95.8466,142.807 96.5,141.5C 100.905,140.391 105.405,139.724 110,139.5C 120.067,139.073 127.234,143.406 131.5,152.5C 130.311,153.429 128.978,153.762 127.5,153.5 Z"/></g>
<g><path style="opacity:1" fill="#fdf1fe" d="M 99.5,148.5 C 106.167,148.5 112.833,148.5 119.5,148.5C 122.14,149.82 124.807,151.153 127.5,152.5C 127.5,152.833 127.5,153.167 127.5,153.5C 127.5,153.833 127.5,154.167 127.5,154.5C 125.104,152.862 122.438,151.696 119.5,151C 114.803,150.72 110.137,150.22 105.5,149.5C 103.339,150.454 101.339,150.12 99.5,148.5 Z"/></g>
<g><path style="opacity:1" fill="#fbddfd" d="M 95.5,149.5 C 95.5,151.167 95.5,152.833 95.5,154.5C 93.8958,153.713 93.2291,152.38 93.5,150.5C 94.1667,150.167 94.8333,149.833 95.5,149.5 Z"/></g>
<g><path style="opacity:1" fill="#b386cd" d="M 96.5,141.5 C 95.8466,142.807 95.1799,144.14 94.5,145.5C 103.482,146.332 112.482,146.832 121.5,147C 124.641,147.715 126.641,149.548 127.5,152.5C 124.807,151.153 122.14,149.82 119.5,148.5C 111.016,147.507 102.349,147.174 93.5,147.5C 93.5,148.5 93.5,149.5 93.5,150.5C 93.2291,152.38 93.8958,153.713 95.5,154.5C 95.5,154.833 95.5,155.167 95.5,155.5C 100.349,156.166 105.349,156.833 110.5,157.5C 105.683,158.167 101.017,158.834 96.5,159.5C 96.1667,159.5 95.8333,159.5 95.5,159.5C 94.0668,156.294 92.4002,153.294 90.5,150.5C 92.0808,148.858 92.7475,146.858 92.5,144.5C 93.2623,142.738 94.5956,141.738 96.5,141.5 Z"/></g>
<g><path style="opacity:1" fill="#c2a4d0" d="M 119.5,148.5 C 112.833,148.5 106.167,148.5 99.5,148.5C 97.901,148.232 96.5676,148.566 95.5,149.5C 94.8333,149.833 94.1667,150.167 93.5,150.5C 93.5,149.5 93.5,148.5 93.5,147.5C 102.349,147.174 111.016,147.507 119.5,148.5 Z"/></g>
<g><path style="opacity:0.906" fill="#bf9fce" d="M 131.5,148.5 C 134.036,150.698 135.703,153.031 136.5,155.5C 135.688,156.993 134.355,157.66 132.5,157.5C 130.645,157.66 129.312,156.993 128.5,155.5C 130.167,155.5 131.833,155.5 133.5,155.5C 133.6,152.892 132.933,150.558 131.5,148.5 Z"/></g>
<g><path style="opacity:1" fill="#ccabdd" d="M 95.5,155.5 C 100.833,155.5 106.167,155.5 111.5,155.5C 111.5,156.833 111.5,158.167 111.5,159.5C 106.5,159.5 101.5,159.5 96.5,159.5C 101.017,158.834 105.683,158.167 110.5,157.5C 105.349,156.833 100.349,156.166 95.5,155.5 Z"/></g>
<g><path style="opacity:1" fill="#bd7fe1" d="M 90.5,150.5 C 92.4002,153.294 94.0668,156.294 95.5,159.5C 94.5,159.5 93.5,159.5 92.5,159.5C 93.1901,163.49 93.3568,167.49 93,171.5C 91.5792,174.622 89.9125,174.956 88,172.5C 87.3333,166.833 87.3333,161.167 88,155.5C 88.0995,153.347 88.9328,151.681 90.5,150.5 Z"/></g>
<g><path style="opacity:0.924" fill="#fcfcfc" d="M -0.5,192.5 C -0.5,189.833 -0.5,187.167 -0.5,184.5C 4.0616,169.775 14.0616,162.608 29.5,163C 29.9304,178.934 22.2638,188.934 6.5,193C 4.07085,193.703 1.73752,193.537 -0.5,192.5 Z"/></g>
<g><path style="opacity:1" fill="#fcf1fe" d="M 137.5,169.5 C 136.833,169.5 136.167,169.5 135.5,169.5C 133.047,168.355 130.713,168.688 128.5,170.5C 127.662,170.842 127.328,171.508 127.5,172.5C 125.445,174.555 123.112,176.221 120.5,177.5C 120.608,175.217 121.441,173.217 123,171.5C 126.234,168.985 129.567,166.651 133,164.5C 135.391,165.39 136.891,167.057 137.5,169.5 Z"/></g>
<g><path style="opacity:0.914" fill="#c7a9d8" d="M 135.5,169.5 C 136.28,171.83 135.613,173.83 133.5,175.5C 133.5,173.833 133.5,172.167 133.5,170.5C 131.833,170.5 130.167,170.5 128.5,170.5C 130.713,168.688 133.047,168.355 135.5,169.5 Z"/></g>
<g><path style="opacity:1" fill="#b991d1" d="M 92.5,144.5 C 92.7475,146.858 92.0808,148.858 90.5,150.5C 88.9328,151.681 88.0995,153.347 88,155.5C 87.3333,161.167 87.3333,166.833 88,172.5C 89.9125,174.956 91.5792,174.622 93,171.5C 93.3568,167.49 93.1901,163.49 92.5,159.5C 93.5,159.5 94.5,159.5 95.5,159.5C 94.1783,161.802 94.1783,164.135 95.5,166.5C 100.792,167.495 106.125,167.828 111.5,167.5C 111.5,168.5 111.5,169.5 111.5,170.5C 106.156,170.334 100.823,170.501 95.5,171C 94.2203,173.132 94.2203,175.298 95.5,177.5C 103.657,178.82 111.657,178.82 119.5,177.5C 119.833,177.5 120.167,177.5 120.5,177.5C 123.112,176.221 125.445,174.555 127.5,172.5C 127.328,171.508 127.662,170.842 128.5,170.5C 130.167,170.5 131.833,170.5 133.5,170.5C 133.5,172.167 133.5,173.833 133.5,175.5C 126.006,187.393 115.339,191.56 101.5,188C 85.7024,179.609 81.2024,167.109 88,150.5C 89.3634,148.316 90.8634,146.316 92.5,144.5 Z"/></g>
<g><path style="opacity:1" fill="#fae8fd" d="M 111.5,170.5 C 106.695,171.487 101.695,171.821 96.5,171.5C 96.5,173.167 96.5,174.833 96.5,176.5C 104.201,176.309 111.868,176.642 119.5,177.5C 111.657,178.82 103.657,178.82 95.5,177.5C 94.2203,175.298 94.2203,173.132 95.5,171C 100.823,170.501 106.156,170.334 111.5,170.5 Z"/></g>
<g><path style="opacity:1" fill="#bd7ee2" d="M 127.5,172.5 C 129.167,172.5 130.833,172.5 132.5,172.5C 128.304,182.812 120.471,187.812 109,187.5C 104.767,185.135 100.267,183.468 95.5,182.5C 95.5,181.5 95.5,180.5 95.5,179.5C 103.84,179.666 112.173,179.5 120.5,179C 124.681,178.648 127.015,176.481 127.5,172.5 Z"/></g>
<g><path style="opacity:0.004" fill="#000000" d="M 64.5,277.5 C 65.8333,278.167 65.8333,278.167 64.5,277.5 Z"/></g>
<g><path style="opacity:0.004" fill="#000000" d="M 316.5,297.5 C 317.833,298.167 317.833,298.167 316.5,297.5 Z"/></g>
<g><path style="opacity:0.008" fill="#000000" d="M 244.5,303.5 C 245.833,304.167 245.833,304.167 244.5,303.5 Z"/></g>
<g><path style="opacity:0.008" fill="#000000" d="M 99.5,319.5 C 98.8333,318.167 98.8333,318.167 99.5,319.5 Z"/></g>
</svg>
